<?xml version="1.0" encoding="UTF-8"?>
<svg width="48px" height="47px" viewBox="0 0 48 47" version="1.1" xmlns="http://www.w3.org/2000/svg" xmlns:xlink="http://www.w3.org/1999/xlink">
    <!-- Generator: Sketch 61.2 (89653) - https://sketch.com -->
    <title>cubes</title>
    <desc>Created with Sketch.</desc>
    <g id="Page-1" stroke="none" stroke-width="1" fill="none" fill-rule="evenodd">
        <g id="Home" transform="translate(-665.000000, -888.000000)" fill="#000000" fill-rule="nonzero">
            <g id="Group-4" transform="translate(0.000000, 799.000000)">
                <g id="cubes" transform="translate(665.000000, 89.000000)">
                    <path d="M47.5169062,25.7181563 L36.4806562,19.6035 L36.4806562,7.371375 C36.4806562,7.0305 36.2955937,6.71653125 35.9975625,6.55134375 L24.4663125,0.16246875 C24.1835625,0.0058125 23.84025,0.0058125 23.5575937,0.16246875 L12.0263437,6.55134375 C11.7282187,6.71653125 11.54325,7.0305 11.54325,7.371375 L11.54325,19.5902813 L0.48309375,25.7181563 C0.1850625,25.8833438 0,26.1973125 0,26.5381875 L0,39.3160313 C0,39.6569063 0.1850625,39.970875 0.48309375,40.1360625 L12.0143437,46.5250313 C12.1557188,46.6033125 12.3121875,46.6425938 12.46875,46.6425938 C12.6253125,46.6425938 12.7817812,46.6034063 12.9231563,46.5250313 L24,40.387875 L35.0768438,46.525125 C35.2182187,46.6034063 35.3747812,46.6425938 35.53125,46.6425938 C35.6878125,46.6425938 35.8442813,46.6035 35.9856562,46.525125 L38.6745937,45.03525 C39.1275,44.7842813 39.2911875,44.2137188 39.0402187,43.7608125 C38.78925,43.3079063 38.2185937,43.1444063 37.7657812,43.3951875 L36.46875,44.1137813 L36.46875,33.4795313 L46.125,28.1294063 L46.125,38.76375 L44.2386563,39.808875 C43.78575,40.05975 43.6220625,40.6304063 43.8730313,41.0832188 C44.1240938,41.5362188 44.6948438,41.6999063 45.1474688,41.4489375 L47.5169063,40.1361563 C47.8150313,39.9709688 48,39.657 48,39.316125 L48,26.5381875 C48,26.1973125 47.8149375,25.8833438 47.5169062,25.7181563 Z M24.0119063,2.05425 L33.6087188,7.371375 L24.0119063,12.6885 L14.4150938,7.371375 L24.0119063,2.05425 Z M11.53125,44.113875 L1.875,38.76375 L1.875,28.1294063 L11.53125,33.4795313 L11.53125,44.113875 Z M12.46875,31.8554063 L2.8719375,26.5381875 L12.46875,21.2210625 L22.0655625,26.5381875 L12.46875,31.8554063 Z M23.0625,38.76375 L13.40625,44.113875 L13.40625,33.4795313 L23.0625,28.1294063 L23.0625,38.76375 Z M24.0119062,19.9374375 C23.4942188,19.9374375 23.0744062,20.3571563 23.0744062,20.8749375 L23.0744062,24.9469688 L13.4181562,19.5969375 L13.4181562,8.96259375 L23.5575,14.580375 C23.698875,14.6586563 23.8553438,14.6978438 24.0119062,14.6978438 C24.1684688,14.6978438 24.3249375,14.65875 24.4663125,14.580375 L34.6056562,8.96259375 L34.6056562,19.5902813 L24.9494062,24.9403125 L24.9494062,20.8749375 C24.9494062,20.3571563 24.5295937,19.9374375 24.0119062,19.9374375 Z M34.59375,44.113875 L24.9375,38.76375 L24.9375,28.1294063 L34.59375,33.4795313 L34.59375,44.113875 Z M35.53125,31.8554063 L25.9403437,26.5414688 L35.5371562,21.2243438 L45.1280625,26.5381875 L35.53125,31.8554063 Z" id="Shape"></path>
                    <path d="M42.3186563,41.6492813 C42.144375,41.4739688 41.9025,41.3745938 41.6559375,41.3745938 C41.409375,41.3745938 41.1675,41.4739688 40.993125,41.6492813 C40.81875,41.8227188 40.7184375,42.0645938 40.7184375,42.3111563 C40.7184375,42.5586563 40.8186563,42.8005313 40.993125,42.9749063 C41.1675,43.1492813 41.409375,43.2486563 41.6559375,43.2486563 C41.9025,43.2486563 42.144375,43.1492813 42.3186563,42.9749063 C42.4930313,42.8005313 42.5934375,42.5586563 42.5934375,42.3111563 C42.5934375,42.0645938 42.493125,41.8227188 42.3186563,41.6492813 Z" id="Path"></path>
                    <path d="M24.675,16.9152188 C24.500625,16.7408437 24.25875,16.6405312 24.0121875,16.6405312 C23.765625,16.6405312 23.52375,16.7408437 23.349375,16.9152188 C23.1740625,17.0895937 23.0746875,17.3314687 23.0746875,17.5780312 C23.0746875,17.8245937 23.1740625,18.0664687 23.349375,18.2408437 C23.52375,18.4152188 23.7646875,18.5155312 24.0121875,18.5155312 C24.25875,18.5155312 24.500625,18.4152188 24.675,18.2408437 C24.8492812,18.0664687 24.9496875,17.8245937 24.9496875,17.5780312 C24.9496875,17.3314687 24.849375,17.0895937 24.675,16.9152188 Z" id="Path"></path>
                </g>
            </g>
        </g>
    </g>
</svg>