<?xml version="1.0" encoding="UTF-8"?>
<svg width="48px" height="48px" viewBox="0 0 48 48" version="1.1" xmlns="http://www.w3.org/2000/svg" xmlns:xlink="http://www.w3.org/1999/xlink">
    <!-- Generator: Sketch 61.2 (89653) - https://sketch.com -->
    <title>startup</title>
    <desc>Created with Sketch.</desc>
    <g id="Page-1" stroke="none" stroke-width="1" fill="none" fill-rule="evenodd">
        <g id="Home" transform="translate(-1027.000000, -890.000000)" fill="#000000" fill-rule="nonzero">
            <g id="Group-4" transform="translate(0.000000, 799.000000)">
                <g id="startup" transform="translate(1027.000000, 91.000000)">
                    <path d="M25.1870625,22.8141562 C24.8205,22.4475937 24.2270625,22.4475937 23.8605,22.8141562 C23.494875,23.1797813 23.494875,23.7732187 23.8605,24.1397812 C24.2270625,24.5054062 24.8205,24.5054062 25.1870625,24.1397812 C25.5526875,23.7732187 25.5526875,23.1797813 25.1870625,22.8141562 Z" id="Path"></path>
                    <path d="M37.1187188,10.8815625 C35.2868438,9.04978125 32.3213438,9.0496875 30.489375,10.8815625 C28.6622813,12.7086562 28.6621875,15.6824062 30.4896563,17.511 C32.3174063,19.337625 35.2911563,19.338375 37.1187188,17.5108125 C38.9504063,15.679125 38.9507813,12.7135312 37.1187188,10.8815625 Z M35.7929063,16.1849062 C34.6966875,17.2812187 32.91225,17.2812187 31.8154688,16.1850938 C30.7190625,15.0880313 30.7189688,13.3035938 31.8152813,12.207375 C32.9143125,11.1083438 34.6936875,11.1081563 35.7929063,12.207375 C36.8919375,13.3063125 36.892125,15.0857812 35.7929063,16.1849062 Z" id="Shape"></path>
                    <path d="M47.7253125,0.27459375 C47.5411875,0.0905625 47.2899375,-0.0091875 47.02875,0.00065625 C46.8167812,0.00825 41.76975,0.211125 35.7702187,2.33165625 C30.9627187,4.02909375 26.9555625,6.459375 23.8600312,9.555 C23.166375,10.2486563 22.491375,10.9842188 21.8455313,11.748375 C18.7847812,9.9466875 16.3320937,10.511625 14.7815625,11.3414063 C11.2114687,13.2520313 9.0016875,18.4397813 9.0016875,22.1504063 C9.0016875,22.5295312 9.2304375,22.8714375 9.5806875,23.0164688 C9.69665625,23.0645625 9.81853125,23.0879063 9.93928125,23.0879063 C10.1833125,23.0879063 10.4230312,22.9925625 10.602375,22.8133125 C12.4851562,20.9305313 14.8074375,21.0482813 15.5660625,21.1480313 L15.894375,21.4763438 C15.24825,23.0138437 14.72775,24.5427187 14.346,26.0296875 C14.2081875,26.5678125 14.2546875,27.13725 14.4595312,27.658125 C13.5569062,28.0740938 12.6860625,28.684875 11.9278125,29.443125 C9.51459375,31.8564375 9.0245625,37.73775 9.004875,37.9869375 C8.9833125,38.2604063 9.0825,38.5296563 9.27646875,38.723625 C9.453,38.9000625 9.69178125,38.9982188 9.93928125,38.9982188 C9.96384375,38.9982188 9.9885,38.9972813 10.0131562,38.9953125 C10.2623437,38.9757188 16.1438438,38.4856875 18.5570625,36.0724688 C19.3150313,35.3145 19.9257188,34.44375 20.3416875,33.5413125 C20.893125,33.7581562 21.4606875,33.784875 21.9710625,33.6540938 C23.457375,33.2724375 24.9860625,32.752125 26.52375,32.1059062 L26.8520625,32.4342187 C26.9517188,33.1929375 27.0694688,35.5152187 25.1867813,37.3978125 C24.91875,37.6659375 24.8385,38.0691562 24.983625,38.4194062 C25.1286563,38.76975 25.4704688,38.9982188 25.8496875,38.9982188 C29.5603125,38.9982188 34.7479688,36.7883437 36.6585938,33.21825 C37.488375,31.6679063 38.0533125,29.2152187 36.251625,26.154375 C37.0154063,25.5088125 37.7510625,24.8338125 38.445,24.139875 C41.540625,21.04425 43.9708125,17.0370937 45.66825,12.2299687 C47.788875,6.23015625 47.9916563,1.18303125 47.99925,0.97115625 C48.008625,0.711 47.9093437,0.45871875 47.7253125,0.27459375 Z M11.09775,20.1339375 C11.680125,17.3155312 13.3716562,14.2228125 15.6666562,12.9945 C17.2003125,12.1738125 18.8766562,12.25425 20.6590312,13.2299062 C19.1405625,15.2269687 17.8204687,17.3785312 16.720125,19.6505625 C16.7061562,19.6419375 16.5374063,19.4297812 16.2239062,19.3590937 C16.095,19.3299375 13.6144688,18.7964062 11.09775,20.1339375 Z M17.23125,34.7465625 C15.9421875,36.035625 12.9182812,36.7155 11.007,36.9930937 C11.2846875,35.0817188 11.9646563,32.0579063 13.253625,30.7689375 C13.9755,30.0470625 14.8125,29.49975 15.6538125,29.1915 L18.8086875,32.346375 C18.5004375,33.1876875 17.9532187,34.0246875 17.23125,34.7465625 Z M21.5053125,31.8377812 C21.234,31.90725 20.91975,31.80525 20.686125,31.572 C19.4732812,30.3591562 18.9988125,29.8846875 18.8499375,29.7359063 C18.5769375,29.4629063 17.9074687,28.7934375 16.42875,27.314625 C16.1949375,27.0803438 16.0929375,26.7661875 16.1622188,26.4953438 C16.4625,25.3259063 16.8552187,24.1260938 17.3327813,22.91475 L25.0854375,30.6674063 C23.8739063,31.1450625 22.6742813,31.5376875 21.5053125,31.8377812 Z M35.0056875,32.3335313 C33.777375,34.6284375 30.68475,36.3200625 27.8664375,36.9023438 C28.7650312,35.211375 28.963125,33.0587813 28.6348125,31.7535 C28.5585938,31.4503125 28.3607812,31.297875 28.3497188,31.2799688 C30.6215625,30.179625 32.7730313,28.8595313 34.7702812,27.3410625 C35.7459375,29.123625 35.8262812,30.8001563 35.0056875,32.3335313 Z M37.119375,22.8140625 C36.2745938,23.65875 35.3649375,24.4748437 34.415625,25.2395625 C32.1335625,27.0770625 29.6218125,28.6335 26.9420625,29.8725 L18.1276875,21.0583125 C19.3666875,18.378375 20.923125,15.866625 22.7604375,13.5848437 C23.5258125,12.634875 24.3418125,11.725125 25.1862188,10.8808125 C27.9635625,8.103375 31.548,5.8929375 35.842875,4.3018125 L43.698375,12.1573125 C42.1074375,16.4520938 39.897,20.0365313 37.119375,22.8140625 Z M44.3729062,10.1800313 L37.8201562,3.62728125 C41.39025,2.51840625 44.4960937,2.1031875 46.0463437,1.9539375 C45.897,3.50446875 45.4816875,6.6103125 44.3729062,10.1800313 Z" id="Shape"></path>
                    <path d="M22.5347812,38.7233438 C22.1685,38.35725 21.574875,38.3574375 21.208875,38.7235313 L18.557625,41.3757188 C18.191625,41.7419063 18.1917187,42.3355313 18.5578125,42.7015313 C18.9240938,43.0675313 19.5177188,43.0675313 19.8837187,42.7013438 L22.5349688,40.0491563 C22.9009687,39.6829688 22.900875,39.0893438 22.5347812,38.7233438 Z" id="Path"></path>
                    <path d="M9.2769375,25.4654063 C8.9109375,25.0992187 8.31740625,25.0992187 7.951125,25.4652187 L5.2989375,28.1164688 C4.93275,28.4824688 4.93265625,29.0760938 5.29865625,29.4422813 C5.6645625,29.8082813 6.25809375,29.8086563 6.62446875,29.4424688 L9.27665625,26.7912188 C9.64284375,26.4252188 9.6429375,25.8315937 9.2769375,25.4654063 Z" id="Path"></path>
                    <path d="M15.9059063,40.05 C15.54,39.6839062 14.9462813,39.6839062 14.5800938,40.0499062 L8.22946875,46.3995938 C7.86328125,46.7656875 7.86328125,47.3593125 8.229375,47.7254063 C8.59528125,48.0915 9.189,48.0916875 9.5551875,47.7255 L15.9058125,41.3758125 C16.272,41.0097188 16.272,40.4160938 15.9059063,40.05 Z" id="Path"></path>
                    <path d="M8.40590625,40.05 C8.03990625,39.6839062 7.4461875,39.6839062 7.08009375,40.0499062 L0.72946875,46.3995938 C0.36328125,46.7656875 0.36328125,47.3593125 0.729375,47.7254063 C1.09528125,48.0915 1.689,48.0916875 2.0551875,47.7255 L8.4058125,41.3758125 C8.772,41.0097188 8.772,40.4160938 8.40590625,40.05 Z" id="Path"></path>
                    <path d="M7.9501875,32.0941875 C7.5841875,31.7281875 6.99046875,31.7281875 6.624375,32.0942813 L0.2746875,38.4449062 C-0.09140625,38.8110937 -0.09140625,39.404625 0.27478125,39.7708125 C0.640875,40.1369062 1.2345,40.1369062 1.60059375,39.7707188 L7.95028125,33.4200937 C8.316375,33.0539062 8.316375,32.460375 7.9501875,32.0941875 Z" id="Path"></path>
                    <path d="M29.1640312,18.8361562 C28.7978437,18.4700625 28.2044062,18.4700625 27.838125,18.8361562 L26.5125,20.1617813 C26.1464062,20.527875 26.1464062,21.1215 26.5125,21.4876875 C26.8786875,21.8537813 27.4722187,21.8537813 27.8384063,21.4876875 L29.1640313,20.1620625 C29.530125,19.7959688 29.530125,19.2023437 29.1640312,18.8361562 Z" id="Path"></path>
                </g>
            </g>
        </g>
    </g>
</svg>