<?xml version="1.0" encoding="UTF-8"?>
<svg width="48px" height="45px" viewBox="0 0 48 45" version="1.1" xmlns="http://www.w3.org/2000/svg" xmlns:xlink="http://www.w3.org/1999/xlink">
    <!-- Generator: Sketch 61.2 (89653) - https://sketch.com -->
    <title>coding</title>
    <desc>Created with Sketch.</desc>
    <g id="Page-1" stroke="none" stroke-width="1" fill="none" fill-rule="evenodd">
        <g id="Home" transform="translate(-281.000000, -892.000000)" fill="#0A0A0A" fill-rule="nonzero">
            <g id="Group-4" transform="translate(0.000000, 799.000000)">
                <g id="coding" transform="translate(281.000000, 93.000000)">
                    <path d="M29.625,3.75 C29.1075,3.75 28.6875,4.17 28.6875,4.6875 C28.6875,5.205 29.1075,5.625 29.625,5.625 C30.1425,5.625 30.5625,5.205 30.5625,4.6875 C30.5625,4.17 30.1425,3.75 29.625,3.75 Z" id="Path"></path>
                    <path d="M14.625,3.75 C14.1075,3.75 13.6875,4.17 13.6875,4.6875 C13.6875,5.205 14.1075,5.625 14.625,5.625 C15.1425,5.625 15.5625,5.205 15.5625,4.6875 C15.5625,4.17 15.1425,3.75 14.625,3.75 Z" id="Path"></path>
                    <path d="M10.875,3.75 C10.3575,3.75 9.9375,4.17 9.9375,4.6875 C9.9375,5.205 10.3575,5.625 10.875,5.625 C11.3925,5.625 11.8125,5.205 11.8125,4.6875 C11.8125,4.17 11.3925,3.75 10.875,3.75 Z" id="Path"></path>
                    <path d="M7.125,3.75 C6.6075,3.75 6.1875,4.17 6.1875,4.6875 C6.1875,5.205 6.6075,5.625 7.125,5.625 C7.6425,5.625 8.0625,5.205 8.0625,4.6875 C8.0625,4.17 7.6425,3.75 7.125,3.75 Z" id="Path"></path>
                    <path d="M45.1875,0 L2.8125,0 C1.2616875,0 0,1.2616875 0,2.8125 L0,42.1875 C0,43.7383125 1.2616875,45 2.8125,45 L45.1875,45 C46.7383125,45 48,43.7383125 48,42.1875 L48,2.8125 C48,1.2616875 46.7383125,0 45.1875,0 Z M46.125,42.1875 C46.125,42.7044375 45.7044375,43.125 45.1875,43.125 L2.8125,43.125 C2.2955625,43.125 1.875,42.7044375 1.875,42.1875 L1.875,9.375 L46.125,9.375 L46.125,42.1875 Z M46.125,7.5 L1.875,7.5 L1.875,2.8125 C1.875,2.2955625 2.2955625,1.875 2.8125,1.875 L45.1875,1.875 C45.7044375,1.875 46.125,2.2955625 46.125,2.8125 L46.125,7.5 Z" id="Shape"></path>
                    <path d="M41.4375,3.75 L33.375,3.75 C32.8573125,3.75 32.4375,4.1698125 32.4375,4.6875 C32.4375,5.2051875 32.8573125,5.625 33.375,5.625 L41.4375,5.625 C41.9551875,5.625 42.375,5.2051875 42.375,4.6875 C42.375,4.1698125 41.9551875,3.75 41.4375,3.75 Z" id="Path"></path>
                    <path d="M10.3258125,27.1875 L17.1629062,20.3504062 C17.529,19.9843125 17.529,19.3906875 17.1629062,19.0245938 C16.7968125,18.6585938 16.2031875,18.6585938 15.837,19.0245938 L8.337,26.5245938 C7.97090625,26.8906875 7.97090625,27.4843125 8.337,27.8505 L15.837,35.3505 C16.2031875,35.7165938 16.7967188,35.7165938 17.1629062,35.3505 C17.529,34.9844063 17.529,34.3907813 17.1629062,34.0245938 L10.3258125,27.1875 Z" id="Path"></path>
                    <path d="M39.6629063,26.5245938 L32.1629062,19.0245938 C31.7967188,18.6585938 31.2032813,18.6585938 30.837,19.0245938 C30.4709062,19.3906875 30.4709062,19.9843125 30.837,20.3505 L37.6740938,27.1875 L30.837,34.0245938 C30.4709062,34.3906875 30.4709062,34.9843125 30.837,35.3505 C31.2032812,35.7165938 31.796625,35.7165 32.1629062,35.3505 L39.6629063,27.8505 C40.029,27.4844063 40.029,26.8907813 39.6629063,26.5245938 Z" id="Path"></path>
                    <path d="M26.029125,15.01275 C25.5185625,14.9277187 25.035375,15.2727187 24.95025,15.7834687 L21.20025,38.2834687 C21.105,38.8549687 21.5457187,39.3752813 22.126125,39.3752813 C22.576125,39.3752813 22.9733437,39.05025 23.04975,38.5917187 L26.79975,16.0917187 C26.8847812,15.580875 26.539875,15.097875 26.029125,15.01275 Z" id="Path"></path>
                </g>
            </g>
        </g>
    </g>
</svg>