<?xml version="1.0" encoding="UTF-8"?>
<svg width="1062px" height="724px" viewBox="0 0 1062 724" version="1.1" xmlns="http://www.w3.org/2000/svg" xmlns:xlink="http://www.w3.org/1999/xlink">
    <!-- Generator: Sketch 55.2 (78181) - https://sketchapp.com -->
    <title>learn</title>
    <desc>Created with Sketch.</desc>
    <defs>
        <linearGradient x1="50.0244375%" y1="78.3480592%" x2="50.0244375%" y2="21.3480592%" id="linearGradient-1">
            <stop stop-color="#808080" stop-opacity="0.25" offset="0%"></stop>
            <stop stop-color="#808080" stop-opacity="0.12" offset="54%"></stop>
            <stop stop-color="#808080" stop-opacity="0.1" offset="100%"></stop>
        </linearGradient>
        <linearGradient x1="50.000587%" y1="99.9273095%" x2="50.000587%" y2="0.101498152%" id="linearGradient-2">
            <stop stop-color="#808080" stop-opacity="0.25" offset="0%"></stop>
            <stop stop-color="#808080" stop-opacity="0.12" offset="54%"></stop>
            <stop stop-color="#808080" stop-opacity="0.1" offset="100%"></stop>
        </linearGradient>
        <linearGradient x1="49.9882812%" y1="99.7820184%" x2="49.9882812%" y2="0%" id="linearGradient-3">
            <stop stop-color="#808080" stop-opacity="0.25" offset="0%"></stop>
            <stop stop-color="#808080" stop-opacity="0.12" offset="54%"></stop>
            <stop stop-color="#808080" stop-opacity="0.1" offset="100%"></stop>
        </linearGradient>
        <linearGradient x1="50.0402248%" y1="99.7968609%" x2="50.0402248%" y2="-0.189908394%" id="linearGradient-4">
            <stop stop-color="#808080" stop-opacity="0.25" offset="0%"></stop>
            <stop stop-color="#808080" stop-opacity="0.12" offset="54%"></stop>
            <stop stop-color="#808080" stop-opacity="0.1" offset="100%"></stop>
        </linearGradient>
        <linearGradient x1="50.0072135%" y1="100.021184%" x2="50.0072135%" y2="0.0947575955%" id="linearGradient-5">
            <stop stop-color="#808080" stop-opacity="0.25" offset="0%"></stop>
            <stop stop-color="#808080" stop-opacity="0.12" offset="54%"></stop>
            <stop stop-color="#808080" stop-opacity="0.1" offset="100%"></stop>
        </linearGradient>
        <linearGradient x1="49.783088%" y1="100.11796%" x2="49.783088%" y2="0%" id="linearGradient-6">
            <stop stop-color="#808080" stop-opacity="0.25" offset="0%"></stop>
            <stop stop-color="#808080" stop-opacity="0.12" offset="54%"></stop>
            <stop stop-color="#808080" stop-opacity="0.1" offset="100%"></stop>
        </linearGradient>
        <linearGradient x1="51.108148%" y1="100.086812%" x2="51.108148%" y2="0%" id="linearGradient-7">
            <stop stop-color="#808080" stop-opacity="0.25" offset="0%"></stop>
            <stop stop-color="#808080" stop-opacity="0.12" offset="54%"></stop>
            <stop stop-color="#808080" stop-opacity="0.1" offset="100%"></stop>
        </linearGradient>
        <linearGradient x1="49.9813641%" y1="100.109496%" x2="49.9813641%" y2="0.57369339%" id="linearGradient-8">
            <stop stop-color="#808080" stop-opacity="0.25" offset="0%"></stop>
            <stop stop-color="#808080" stop-opacity="0.12" offset="54%"></stop>
            <stop stop-color="#808080" stop-opacity="0.1" offset="100%"></stop>
        </linearGradient>
        <linearGradient x1="49.993395%" y1="66.72%" x2="49.993395%" y2="32.72%" id="linearGradient-9">
            <stop stop-color="#808080" stop-opacity="0.25" offset="0%"></stop>
            <stop stop-color="#808080" stop-opacity="0.12" offset="54%"></stop>
            <stop stop-color="#808080" stop-opacity="0.1" offset="100%"></stop>
        </linearGradient>
        <linearGradient x1="49.997016%" y1="100.024637%" x2="49.997016%" y2="0%" id="linearGradient-10">
            <stop stop-color="#808080" stop-opacity="0.25" offset="0%"></stop>
            <stop stop-color="#808080" stop-opacity="0.12" offset="54%"></stop>
            <stop stop-color="#808080" stop-opacity="0.1" offset="100%"></stop>
        </linearGradient>
    </defs>
    <g id="Page-1" stroke="none" stroke-width="1" fill="none" fill-rule="evenodd">
        <g id="learn">
            <path d="M605.87,111.4 C541.15,109.16 479.51,88.26 420.65,65.4 C361.79,42.54 303.49,17.18 240.32,5.11 C199.69,-2.69 153.22,-3.79 120.49,18 C89,38.96 78.8,75.18 73.33,108.72 C69.21,133.98 66.79,160.57 78.07,184.22 C85.91,200.64 99.81,214.44 109.43,230.16 C142.9,284.89 119.24,352.37 82.98,405.8 C65.98,430.86 46.23,454.8 33.1,481.45 C19.97,508.1 13.9,538.7 25.39,565.92 C36.77,592.92 63.9,613.16 93.29,627.41 C152.98,656.36 223.29,664.64 291.9,669.34 C443.73,679.72 596.36,675.23 748.59,670.72 C804.93,669.06 861.51,667.37 916.93,658.66 C947.71,653.82 979.48,646.14 1001.83,627.6 C1030.19,604.07 1037.22,564.23 1018.21,534.72 C986.33,485.23 898.21,472.94 875.9,419.83 C863.64,390.59 876.23,358.03 894.06,330.92 C932.3,272.75 996.39,221.72 999.76,155.24 C1002.08,109.58 971.27,63.85 923.63,42.24 C873.7,19.59 804.45,22.44 767.63,59.92 C729.68,98.53 663,113.39 605.87,111.4 Z" id="Path" fill="#007BFF" fill-rule="nonzero" opacity="0.1"></path>
            <rect id="Rectangle" fill="#E8E9ED" fill-rule="nonzero" x="0" y="123.48" width="259.51" height="259.51"></rect>
            <rect id="Rectangle" fill="#E8E9ED" fill-rule="nonzero" x="802.49" y="123.48" width="259.51" height="259.51"></rect>
            <path d="M145.39,32.03 L142.8,29.38 C142.695821,29.2634947 142.546275,29.1978404 142.39,29.2 C142.233176,29.1950721 142.082512,29.2612174 141.98,29.38 L124.08,47.38 L117.56,40.87 C117.454059,40.7561281 117.305532,40.6914446 117.15,40.6914446 C116.994468,40.6914446 116.845941,40.7561281 116.74,40.87 L114.13,43.48 C114.015056,43.5894708 113.95,43.7412674 113.95,43.9 C113.95,44.0587326 114.015056,44.2105292 114.13,44.32 L122.35,52.53 C122.791333,53.0187365 123.403434,53.3194175 124.06,53.37 C124.708569,53.3133473 125.315306,53.0259456 125.77,52.56 L125.77,52.56 L145.4,32.87 C145.613901,32.6308514 145.613901,32.2691486 145.4,32.03 L145.39,32.03 Z" id="Path" fill="#3ACC6C" fill-rule="nonzero" opacity="0.5"></path>
            <path d="M129.75,14.8798873 C142.338137,14.8890141 153.167464,23.7877068 155.616749,36.1352687 C158.066034,48.4828306 151.453329,60.841357 139.821751,65.6546384 C128.190173,70.4679198 114.778278,66.3958048 107.786322,55.9280526 C100.794366,45.4603003 102.169105,31.5114241 111.07,22.61 C116.014972,17.642803 122.741051,14.8594738 129.75,14.8798873 L129.75,14.8798873 Z M129.75,10.7699934 C117.400858,10.7699934 106.26788,18.2094788 101.543002,29.6189857 C96.818125,41.0284925 99.4319756,54.1607741 108.165568,62.8915059 C116.89916,71.6222376 130.032298,74.2317859 141.440256,69.503171 C152.848214,64.7745561 160.284045,53.6391415 160.280002,41.29 C160.282656,33.193046 157.066645,25.4271056 151.340295,19.702632 C145.613946,13.9781585 137.846953,10.7646918 129.75,10.7699934 L129.75,10.7699934 Z" id="Shape" fill="#007BFF" fill-rule="nonzero" opacity="0.5"></path>
            <path d="M345.82,117.36 L342.56,114.02 C342.429065,113.877416 342.243565,113.797397 342.05,113.8 C341.852464,113.791747 341.661633,113.872483 341.53,114.02 L319,136.72 L310.79,128.52 C310.657613,128.379474 310.473065,128.299865 310.28,128.3 C310.083943,128.299476 309.896151,128.378927 309.76,128.52 L306.47,131.81 C306.324984,131.9461 306.242722,132.136121 306.242722,132.335 C306.242722,132.533879 306.324984,132.7239 306.47,132.86 L316.81,143.18 C317.368904,143.793784 318.142075,144.169631 318.97,144.23 C319.779232,144.160551 320.537563,143.80619 321.11,143.23 L321.11,143.23 L345.81,118.39 C346.047817,118.099084 346.047817,117.680916 345.81,117.39 L345.82,117.36 Z" id="Path" fill="#3ACC6C" fill-rule="nonzero" opacity="0.8"></path>
            <path d="M326.12,95.759813 C341.981851,95.7635293 355.632592,106.970693 358.724705,122.528237 C361.816818,138.085781 353.489206,153.661214 338.834258,159.730057 C324.179311,165.7989 307.278163,160.671091 298.465976,147.482319 C289.65379,134.293547 291.384598,116.716644 302.6,105.5 C308.82178,99.2383148 317.292862,95.7303074 326.12,95.759813 L326.12,95.759813 Z M326.12,90.5899987 C304.895697,90.5899987 287.69,107.795697 287.69,129.02 C287.69,150.244303 304.895697,167.45 326.12,167.45 C347.344303,167.45 364.550001,150.244303 364.550001,129.02 C364.552653,118.826917 360.504642,109.050554 353.297044,101.842956 C346.089446,94.6353579 336.313083,90.5873466 326.12,90.5899987 L326.12,90.5899987 Z" id="Shape" fill="#007BFF" fill-rule="nonzero" opacity="0.8"></path>
            <path d="M932.24,14.8798873 C944.828137,14.8890141 955.657464,23.7877068 958.106749,36.1352687 C960.556034,48.4828306 953.943329,60.841357 942.311751,65.6546384 C930.680173,70.4679198 917.268278,66.3958048 910.276322,55.9280526 C903.284366,45.4603003 904.659105,31.5114241 913.56,22.61 C918.504972,17.642803 925.231051,14.8594738 932.24,14.8798873 L932.24,14.8798873 Z M932.24,10.7699934 C919.890858,10.7699934 908.75788,18.2094788 904.033002,29.6189857 C899.308125,41.0284925 901.921976,54.1607741 910.655568,62.8915059 C919.38916,71.6222376 932.522298,74.2317859 943.930256,69.503171 C955.338214,64.7745561 962.774045,53.6391415 962.770002,41.29 C962.772656,33.193046 959.556645,25.4271056 953.830295,19.702632 C948.103946,13.9781585 940.336953,10.7646918 932.24,10.7699934 L932.24,10.7699934 Z" id="Shape" fill="#007BFF" fill-rule="nonzero" opacity="0.5"></path>
            <path d="M734.47,95.7598876 C750.336538,95.7396583 764.006802,106.932753 767.117394,122.491405 C770.227986,138.050058 761.912123,153.638769 747.257409,159.720444 C732.602694,165.80212 715.692739,160.682069 706.872969,147.492714 C698.053199,134.303358 699.781288,116.719979 711,105.5 C717.225582,99.2439878 725.694184,95.7370073 734.52,95.7598876 L734.47,95.7598876 Z M734.52,90.5899531 C713.295697,90.5899531 696.09,107.795697 696.09,129.02 C696.09,150.244303 713.295697,167.45 734.52,167.45 C755.744303,167.45 772.950001,150.244303 772.950001,129.02 C772.952668,118.818246 768.897795,109.034293 761.679377,101.825255 C754.460958,94.6162161 744.671742,90.5740677 734.47,90.5899531 L734.52,90.5899531 Z" id="Shape" fill="#007BFF" fill-rule="nonzero" opacity="0.8"></path>
            <path d="M529.33,156.739771 C550.289834,156.754046 568.321767,171.57014 572.400543,192.129285 C576.479318,212.68843 565.469261,233.266231 546.102245,241.280813 C526.735228,249.295395 504.403717,242.515214 492.761856,225.085873 C481.119994,207.656533 483.40929,184.430979 498.23,169.61 C506.460622,161.3369 517.660129,156.702248 529.33,156.739771 L529.33,156.739771 Z M529.33,149.899999 C501.268412,149.899999 478.52,172.648412 478.52,200.71 C478.52,228.771588 501.268412,251.52 529.33,251.52 C557.391588,251.52 580.140001,228.771588 580.140001,200.71 C580.142653,187.233537 574.790324,174.308273 565.261025,164.778975 C555.731727,155.249676 542.806463,149.897347 529.33,149.899999 L529.33,149.899999 Z" id="Shape" fill="#007BFF" fill-rule="nonzero"></path>
            <rect id="Rectangle" fill="#F3F5F7" fill-rule="nonzero" x="181.52" y="191.5" width="289.2" height="289.2"></rect>
            <rect id="Rectangle" fill="#F3F5F7" fill-rule="nonzero" x="589.87" y="191.5" width="289.2" height="289.2"></rect>
            <rect id="Rectangle" fill="#000000" fill-rule="nonzero" opacity="0.1" x="25.93" y="169.55" width="96.46" height="10.72"></rect>
            <rect id="Rectangle" fill="#000000" fill-rule="nonzero" opacity="0.1" x="849.19" y="169.55" width="96.46" height="10.72"></rect>
            <path d="M701.19,618.41 C701.19,618.41 726.25,574.02 763.99,561.23 C779.852502,555.966481 793.579516,545.699292 803.11,531.97 C807.580652,525.405206 811.443314,518.446389 814.65,511.18" id="Path" stroke="#535461" stroke-width="2"></path>
            <path d="M838.38,503.01 C834.08,507.18 814.05,511.5 814.05,511.5 C814.05,511.5 818.97,491.61 823.27,487.43 C827.572298,483.257489 834.442488,483.362703 838.614999,487.665001 C842.78751,491.967299 842.682298,498.837489 838.38,503.01 L838.38,503.01 Z" id="Path" fill="#007BFF" fill-rule="nonzero"></path>
            <path d="M827.05,538.99 C821.17,540.16 802.05,532.9 802.05,532.9 C802.05,532.9 816.98,518.9 822.86,517.71 C828.668157,516.694801 834.223949,520.503833 835.370882,526.287419 C836.517815,532.071005 832.836027,537.711926 827.08,538.99 L827.05,538.99 Z" id="Path" fill="#007BFF" fill-rule="nonzero"></path>
            <path d="M785.8,577.94 C780.14,575.94 767.27,560.04 767.27,560.04 C767.27,560.04 787.27,555.47 792.9,557.43 C796.563759,558.698293 799.272585,561.824836 800.006091,565.63189 C800.739596,569.438945 799.386344,573.348129 796.456091,575.88689 C793.525837,578.425652 789.463759,579.208293 785.8,577.94 Z" id="Path" fill="#007BFF" fill-rule="nonzero"></path>
            <path d="M748,600.37 C742.08,599.37 726.7,585.86 726.7,585.86 C726.7,585.86 745.62,577.99 751.53,578.96 C755.384251,579.558587 758.620614,582.179909 760.006694,585.825775 C761.392774,589.47164 760.715038,593.580939 758.232116,596.588863 C755.748985,599.596788 751.842409,601.040409 748,600.37 L748,600.37 Z" id="Path" fill="#007BFF" fill-rule="nonzero"></path>
            <path d="M785.32,517.36 C785.32,523.36 796.16,540.73 796.16,540.73 C796.16,540.73 807,523.36 807,517.37 C807,511.37771 802.14229,506.52 796.15,506.52 C790.15771,506.52 785.3,511.37771 785.3,517.37 L785.32,517.36 Z" id="Path" fill="#007BFF" fill-rule="nonzero"></path>
            <path d="M741.39,544.18 C743.18,549.9 758.73,563.24 758.73,563.24 C758.73,563.24 763.89,543.42 762.1,537.7 C760.94246,534.000515 757.899196,531.19959 754.116578,530.352307 C750.333959,529.505023 746.386655,530.740104 743.761577,533.592307 C741.1365,536.444509 740.232459,540.480515 741.39,544.18 Z" id="Path" fill="#007BFF" fill-rule="nonzero"></path>
            <path d="M702.27,576.07 C703.07,582.01 716.13,597.78 716.13,597.78 C716.13,597.78 724.57,579.12 723.78,573.18 C723.263751,569.337609 720.736826,566.062508 717.151093,564.588397 C713.56536,563.114286 709.465577,563.665117 706.396093,566.033397 C703.326609,568.401677 701.753751,572.227609 702.27,576.07 Z" id="Path" fill="#007BFF" fill-rule="nonzero"></path>
            <path d="M838.38,503.01 C834.08,507.18 814.05,511.5 814.05,511.5 C814.05,511.5 818.97,491.61 823.27,487.43 C827.572298,483.257489 834.442488,483.362703 838.614999,487.665001 C842.78751,491.967299 842.682298,498.837489 838.38,503.01 L838.38,503.01 Z" id="Path" fill="#000000" fill-rule="nonzero" opacity="0.25"></path>
            <path d="M827.05,538.99 C821.17,540.16 802.05,532.9 802.05,532.9 C802.05,532.9 816.98,518.9 822.86,517.71 C828.668157,516.694801 834.223949,520.503833 835.370882,526.287419 C836.517815,532.071005 832.836027,537.711926 827.08,538.99 L827.05,538.99 Z" id="Path" fill="#000000" fill-rule="nonzero" opacity="0.25"></path>
            <path d="M785.8,577.94 C780.14,575.94 767.27,560.04 767.27,560.04 C767.27,560.04 787.27,555.47 792.9,557.43 C796.563759,558.698293 799.272585,561.824836 800.006091,565.63189 C800.739596,569.438945 799.386344,573.348129 796.456091,575.88689 C793.525837,578.425652 789.463759,579.208293 785.8,577.94 Z" id="Path" fill="#000000" fill-rule="nonzero" opacity="0.25"></path>
            <path d="M748,600.37 C742.08,599.37 726.7,585.86 726.7,585.86 C726.7,585.86 745.62,577.99 751.53,578.96 C755.384251,579.558587 758.620614,582.179909 760.006694,585.825775 C761.392774,589.47164 760.715038,593.580939 758.232116,596.588863 C755.748985,599.596788 751.842409,601.040409 748,600.37 L748,600.37 Z" id="Path" fill="#000000" fill-rule="nonzero" opacity="0.25"></path>
            <path d="M785.32,517.36 C785.32,523.36 796.16,540.73 796.16,540.73 C796.16,540.73 807,523.36 807,517.37 C807,511.37771 802.14229,506.52 796.15,506.52 C790.15771,506.52 785.3,511.37771 785.3,517.37 L785.32,517.36 Z" id="Path" fill="#000000" fill-rule="nonzero" opacity="0.25"></path>
            <path d="M741.39,544.18 C743.18,549.9 758.73,563.24 758.73,563.24 C758.73,563.24 763.89,543.42 762.1,537.7 C760.94246,534.000515 757.899196,531.19959 754.116578,530.352307 C750.333959,529.505023 746.386655,530.740104 743.761577,533.592307 C741.1365,536.444509 740.232459,540.480515 741.39,544.18 Z" id="Path" fill="#000000" fill-rule="nonzero" opacity="0.25"></path>
            <path d="M702.27,576.07 C703.07,582.01 716.13,597.78 716.13,597.78 C716.13,597.78 724.57,579.12 723.78,573.18 C723.263751,569.337609 720.736826,566.062508 717.151093,564.588397 C713.56536,563.114286 709.465577,563.665117 706.396093,566.033397 C703.326609,568.401677 701.753751,572.227609 702.27,576.07 Z" id="Path" fill="#000000" fill-rule="nonzero" opacity="0.25"></path>
            <path d="M702.63,617.53 C702.63,617.53 707.56,566.8 736.87,539.81 C749.239879,528.559186 757.629209,513.601548 760.78,497.18 C762.209059,489.374658 762.922022,481.455076 762.91015,473.52" id="Path" stroke="#535461" stroke-width="2"></path>
            <path d="M781.29,456.43 C779.05,461.99 762.49,474.05 762.49,474.05 C762.49,474.05 758.92,453.88 761.16,448.32 C762.608712,444.724122 765.865755,442.174272 769.704233,441.630954 C773.542711,441.087637 777.379467,442.633394 779.769233,445.685954 C782.158999,448.738515 782.738712,452.834122 781.29,456.43 L781.29,456.43 Z" id="Path" fill="#007BFF" fill-rule="nonzero"></path>
            <path d="M785.51,493.92 C780.61,497.37 760.16,498.5 760.16,498.5 C760.16,498.5 768.16,479.62 773.03,476.18 C777.926358,472.952611 784.501073,474.199867 787.875287,478.996225 C791.2495,483.792582 790.201956,490.402059 785.51,493.92 Z" id="Path" fill="#007BFF" fill-rule="nonzero"></path>
            <path d="M763.58,546.24 C757.58,546.74 739.39,537.39 739.39,537.39 C739.39,537.39 755.79,525.12 761.76,524.62 C765.662586,524.220465 769.476899,525.958676 771.735794,529.166042 C773.994688,532.373409 774.346307,536.550337 772.655404,540.090203 C770.9645,543.630068 767.494457,545.981486 763.58,546.24 L763.58,546.24 Z" id="Path" fill="#007BFF" fill-rule="nonzero"></path>
            <path d="M738.08,582.09 C732.27,583.59 712.73,577.45 712.73,577.45 C712.73,577.45 726.83,562.59 732.63,561.08 C738.376943,559.710326 744.163449,563.190377 745.647527,568.908844 C747.131606,574.627312 743.767715,580.482108 738.08,582.08 L738.08,582.09 Z" id="Path" fill="#007BFF" fill-rule="nonzero"></path>
            <path d="M738.59,491.06 C741.02,496.54 757.97,508.06 757.97,508.06 C757.97,508.06 760.86,487.78 758.44,482.3 C756.012709,476.818574 749.601426,474.342709 744.12,476.77 C738.638574,479.197291 736.162709,485.608574 738.59,491.09 L738.59,491.06 Z" id="Path" fill="#007BFF" fill-rule="nonzero"></path>
            <path d="M709.29,533.36 C713.29,537.86 732.87,543.76 732.87,543.76 C732.87,543.76 729.55,523.54 725.6,519.04 C721.645641,514.536118 714.788882,514.090642 710.285,518.045 C705.781118,521.999359 705.335641,528.856118 709.29,533.36 L709.29,533.36 Z" id="Path" fill="#007BFF" fill-rule="nonzero"></path>
            <path d="M686.46,578.38 C689.59,583.49 707.93,592.62 707.93,592.62 C707.93,592.62 708.09,572.13 704.93,567.02 C701.793023,561.914127 695.110873,560.318023 690.005,563.455 C684.899127,566.591977 683.303023,573.274127 686.44,578.38 L686.46,578.38 Z" id="Path" fill="#007BFF" fill-rule="nonzero"></path>
            <rect id="Rectangle" fill="#000000" fill-rule="nonzero" opacity="0.1" x="218.85" y="253.23" width="96.46" height="10.72"></rect>
            <rect id="Rectangle" fill="#000000" fill-rule="nonzero" opacity="0.1" x="396.6" y="347.46" width="57.59" height="10.72"></rect>
            <rect id="Rectangle" fill="#000000" fill-rule="nonzero" opacity="0.1" x="396.6" y="419.4" width="85.28" height="10.72"></rect>
            <rect id="Rectangle" fill="#000000" fill-rule="nonzero" opacity="0.1" x="218.85" y="291.01" width="96.46" height="10.72"></rect>
            <rect id="Rectangle" fill="#000000" fill-rule="nonzero" opacity="0.1" x="652.92" y="253.23" width="96.46" height="10.72"></rect>
            <rect id="Rectangle" fill="#000000" fill-rule="nonzero" opacity="0.1" x="652.92" y="291.01" width="96.46" height="10.72"></rect>
            <path d="M515.66,215.65 L518.36,212.11 C520.957515,214.655148 524.443457,216.089692 528.08,216.11 C532.64,216.11 536.02,213.88 536.02,210.27 C536.02,206.35 532.78,203.77 523.8,203.77 L523.8,199.7 C531.8,199.7 534.8,197.07 534.8,193.6 C534.8,190.46 532.11,188.5 528.12,188.5 C525.011479,188.591671 522.041479,189.80667 519.76,191.92 L516.89,188.5 C520.043067,185.681026 524.110824,184.100108 528.34,184.05 C535.25,184.05 540.34,187.37 540.34,193.19 C540.34,197.29 537.34,199.97 533.02,201.45 L533.02,201.67 C537.65,202.67 541.53,205.74 541.53,210.53 C541.53,216.85 535.53,220.64 528.45,220.64 C522.43,220.63 518.3,218.34 515.66,215.65 Z" id="Path" fill="#007BFF" fill-rule="nonzero"></path>
            <g id="Group" opacity="0.8" transform="translate(720.000000, 112.000000)" fill="#007BFF" fill-rule="nonzero">
                <path d="M17.66,11.5 C17.66,9.58 17.83,7.13 17.93,5.21 L17.68,5.21 C16.58,6.91 15.33,8.6 14.21,10.29 L6.21,20.55 L27.45,20.55 L27.45,24.68 L0.73,24.68 L0.73,21.18 L16.68,0.18 L22.55,0.18 L22.55,33.57 L17.66,33.57 L17.66,11.5 Z" id="Path"></path>
            </g>
            <g id="Group" opacity="0.5" transform="translate(921.000000, 30.000000)" fill="#007BFF" fill-rule="nonzero">
                <path d="M0.85,21.88 L2.66,19.41 C4.40982994,21.1252585 6.75970965,22.0903236 9.21,22.1 C12.43,22.1 14.96,20.18 14.96,17.03 C14.96,13.88 12.73,12.18 9.42,12.18 C7.7437842,12.1660644 6.10112484,12.6498137 4.7,13.57 L2.82,12.36 L3.58,0.55 L17.58,0.55 L17.58,3.8 L6.88,3.8 L6.29,10.27 C7.59289494,9.67841367 9.00913731,9.37810204 10.44,9.39 C15.03,9.39 18.77,11.75 18.77,16.97 C18.77,22.19 14.39,25.24 9.66,25.24 C6.39340783,25.335866 3.22314423,24.1267757 0.85,21.88 Z" id="Path"></path>
            </g>
            <rect id="Rectangle" fill="#007BFF" fill-rule="nonzero" opacity="0.1" x="347.16" y="283.32" width="357.49" height="357.49"></rect>
            <rect id="Rectangle" fill="#FFFFFF" fill-rule="nonzero" x="359.16" y="266.32" width="357.49" height="357.49"></rect>
            <rect id="Rectangle" fill="#007BFF" fill-rule="nonzero" opacity="0.5" x="396.6" y="305.92" width="282.6" height="10.72"></rect>
            <rect id="Rectangle" fill="#000000" fill-rule="nonzero" opacity="0.1" x="396.6" y="383.43" width="179.95" height="10.72"></rect>
            <rect id="Rectangle" fill="#000000" fill-rule="nonzero" opacity="0.1" x="396.6" y="455.38" width="174.6" height="10.72"></rect>
            <rect id="Rectangle" fill="#000000" fill-rule="nonzero" opacity="0.1" x="396.6" y="491.35" width="238.01" height="10.72"></rect>
            <path d="M627.52,384.38 L626.29,383.11 C626.235536,383.059493 626.164272,383.030988 626.09,383.03 C626.018578,383.030487 625.950259,383.059253 625.9,383.11 L617.37,391.71 L614.26,388.6 C614.204581,388.551022 614.133908,388.522753 614.06,388.52 C613.989006,388.522496 613.921397,388.550962 613.87,388.6 L612.62,389.85 C612.566249,389.902665 612.535959,389.974749 612.535959,390.05 C612.535959,390.125251 612.566249,390.197335 612.62,390.25 L616.54,394.16 C616.753174,394.391885 617.046032,394.534743 617.36,394.56 C617.66877,394.53402 617.95714,394.395176 618.17,394.17 L618.17,394.17 L627.52,384.78 C627.6136,384.663094 627.6136,384.496906 627.52,384.38 L627.52,384.38 Z" id="Path" fill="#3ACC6C" fill-rule="nonzero" opacity="0.5"></path>
            <path d="M620.07,376.179958 C626.082049,376.175661 631.259677,380.419416 632.435687,386.315326 C633.611697,392.211236 630.45845,398.116684 624.904811,400.41926 C619.351173,402.721836 612.944403,400.780036 609.603574,395.781674 C606.262746,390.783312 606.918623,384.120947 611.17,379.87 C613.524418,377.500173 616.729448,376.171346 620.07,376.179958 L620.07,376.179958 Z M620.07,374.229997 C614.183256,374.225956 608.874098,377.769466 606.61947,383.207335 C604.364842,388.645204 605.609042,394.905843 609.7716,399.0684 C613.934157,403.230958 620.194796,404.475158 625.632665,402.22053 C631.070534,399.965902 634.614044,394.656744 634.610003,388.77 C634.598965,380.747591 628.092416,374.249992 620.07,374.25 L620.07,374.229997 Z" id="Shape" fill="#3ACC6C" fill-rule="nonzero" opacity="0.5"></path>
            <path d="M627.52,456.32 L626.29,455.06 C626.238035,455.005672 626.165097,454.976498 626.09,454.98 C626.017856,454.976722 625.948071,455.006105 625.9,455.06 L617.37,463.65 L614.26,460.55 C614.208345,460.494053 614.136131,460.461557 614.06,460.46 C613.986821,460.461915 613.917839,460.49459 613.87,460.55 L612.62,461.79 C612.566249,461.842665 612.535959,461.914749 612.535959,461.99 C612.535959,462.065251 612.566249,462.137335 612.62,462.19 L616.54,466.11 C616.753174,466.341885 617.046032,466.484743 617.36,466.51 C617.667551,466.479615 617.954456,466.341476 618.17,466.12 L618.17,466.12 L627.52,456.72 C627.6136,456.603094 627.6136,456.436906 627.52,456.32 L627.52,456.32 Z" id="Path" fill="#3ACC6C" fill-rule="nonzero" opacity="0.5"></path>
            <path d="M620.07,448.179958 C626.082049,448.175661 631.259677,452.419416 632.435687,458.315326 C633.611697,464.211236 630.45845,470.116684 624.904811,472.41926 C619.351173,474.721836 612.944403,472.780036 609.603574,467.781674 C606.262746,462.783312 606.918623,456.120947 611.17,451.87 C613.524418,449.500173 616.729448,448.171346 620.07,448.179958 L620.07,448.179958 Z M620.07,446.179997 C614.184166,446.175955 608.87564,449.718383 606.620425,455.155023 C604.36521,460.591664 605.607577,466.851518 609.76806,471.014863 C613.928543,475.178207 620.187542,476.424878 625.625732,474.173401 C631.063922,471.921925 634.610003,466.615835 634.610003,460.73 C634.612653,456.87202 633.081936,453.171144 630.35487,450.442202 C627.627803,447.71326 623.927981,446.179997 620.07,446.179997 L620.07,446.179997 Z" id="Shape" fill="#3ACC6C" fill-rule="nonzero" opacity="0.5"></path>
            <path d="M111.23,693.37 C110.906037,693.841758 110.650187,694.356824 110.47,694.9 C103.94,702.57 100.47,709.72 106.74,709.9 C112.58,710.07 119.59,720.51 121.27,723.15 C121.21,723.35 121.15,723.55 121.07,723.75 C121.07,723.75 112.85,710.09 106.17,709.9 C99.49,709.71 103.87,701.59 111.23,693.37 Z" id="Path" fill="#000000" fill-rule="nonzero" opacity="0.1"></path>
            <g id="Group" opacity="0.1" transform="translate(524.000000, 675.000000)" fill="url(#linearGradient-1)" fill-rule="nonzero">
                <path d="M0.15,0.72 C0.52,0.72 9.15,1.45 12.38,0.81 C15.61,0.17 0.15,0.72 0.15,0.72 Z" id="Path"></path>
            </g>
            <g id="Group" opacity="0.1" transform="translate(524.000000, 680.000000)" fill="url(#linearGradient-2)" fill-rule="nonzero">
                <path d="M0.79,0.79 C0.79,0.79 12.79,2.87 13.39,1.79 C13.99,0.71 0.79,0.79 0.79,0.79 Z" id="Path"></path>
            </g>
            <g id="Group" opacity="0.1" transform="translate(488.000000, 678.000000)" fill="url(#linearGradient-3)" fill-rule="nonzero">
                <path d="M0.2,0.62 C0.2,0.62 6.4,0.89 9.78,2.43 C13.16,3.97 0.2,0.62 0.2,0.62 Z" id="Path"></path>
            </g>
            <g id="Group" opacity="0.1" transform="translate(460.000000, 519.000000)" fill="url(#linearGradient-4)" fill-rule="nonzero">
                <path d="M22.15,2.18 L21.81,10.65 C21.81,10.65 10.59,11.55 4.47,10.01 C-1.65,8.47 0.94,1.78 1.18,0.38 L22.15,2.18 Z" id="Path"></path>
            </g>
            <g id="Group" opacity="0.1" transform="translate(485.000000, 552.000000)" fill="url(#linearGradient-5)" fill-rule="nonzero">
                <path d="M0.92,2.52 C0.92,2.52 22.27,-1.1 26.47,1.7 C30.67,4.5 0.92,2.52 0.92,2.52 Z" id="Path"></path>
            </g>
            <g id="Group" opacity="0.1" transform="translate(474.000000, 461.000000)" fill="url(#linearGradient-6)" fill-rule="nonzero">
                <path d="M0.6,0.1 C0.6,0.1 3.6,5.1 1.79,10.24 C-0.02,15.38 0.6,0.1 0.6,0.1 Z" id="Path"></path>
            </g>
            <g id="Group" opacity="0.1" transform="translate(468.000000, 494.000000)" fill="url(#linearGradient-7)" fill-rule="nonzero">
                <path d="M0,0.41 C0,0.41 3.56,2.32 4,5.12 C4.44,7.92 0,0.41 0,0.41 Z" id="Path"></path>
            </g>
            <g id="Group" opacity="0.1" transform="translate(520.000000, 599.000000)" fill="url(#linearGradient-8)" fill-rule="nonzero">
                <path d="M0.78,3.67 C0.78,3.67 23.14,5.94 27.61,0.67 C27.61,0.69 7.44,4.67 0.78,3.67 Z" id="Path"></path>
            </g>
            <g id="Group" opacity="0.1" transform="translate(522.000000, 609.000000)" fill="url(#linearGradient-9)" fill-rule="nonzero">
                <path d="M0.51,1.01 C0.51,1.01 10.51,1.01 15.2,1.28 C19.89,1.55 0.51,1.01 0.51,1.01 Z" id="Path"></path>
            </g>
            <g id="Group" opacity="0.1" transform="translate(483.000000, 614.000000)" fill="url(#linearGradient-10)" fill-rule="nonzero">
                <path d="M0.82,0.26 C0.82,0.26 5.75,5.78 11.31,4.79 C16.87,3.8 0.82,0.26 0.82,0.26 Z" id="Path"></path>
            </g>
            <path d="M524.19,676.68 C524.55,676.68 533.08,677.4 536.19,676.77 C539.3,676.14 524.19,676.68 524.19,676.68 Z" id="Path" fill="#000000" fill-rule="nonzero" opacity="0.1"></path>
            <path d="M524.82,681.71 C524.82,681.71 536.58,683.78 537.21,682.71 C537.84,681.64 524.82,681.71 524.82,681.71 Z" id="Path" fill="#000000" fill-rule="nonzero" opacity="0.1"></path>
            <path d="M488.82,679.56 C488.82,679.56 494.92,679.83 498.24,681.35 C501.56,682.87 488.82,679.56 488.82,679.56 Z" id="Path" fill="#000000" fill-rule="nonzero" opacity="0.1"></path>
            <path d="M522.57,611.5 C522.57,611.5 532.45,611.5 537.03,611.77 C541.61,612.04 522.57,611.5 522.57,611.5 Z" id="Path" fill="#000000" fill-rule="nonzero" opacity="0.1"></path>
        </g>
    </g>
</svg>