<?xml version="1.0" encoding="UTF-8"?>
<svg width="191px" height="50px" viewBox="0 0 191 50" version="1.1" xmlns="http://www.w3.org/2000/svg" xmlns:xlink="http://www.w3.org/1999/xlink">
    <!-- Generator: Sketch 61.2 (89653) - https://sketch.com -->
    <title>Group 9</title>
    <desc>Created with Sketch.</desc>
    <defs>
        <linearGradient x1="50%" y1="0%" x2="50%" y2="100%" id="linearGradient-1">
            <stop stop-color="#53AAFF" offset="0%"></stop>
            <stop stop-color="#0081FF" offset="100%"></stop>
        </linearGradient>
        <linearGradient x1="50%" y1="0%" x2="50%" y2="100%" id="linearGradient-2">
            <stop stop-color="#44B0FF" stop-opacity="0.615848995" offset="0%"></stop>
            <stop stop-color="#4FCAFB" offset="100%"></stop>
        </linearGradient>
    </defs>
    <g id="Page-1" stroke="none" stroke-width="1" fill="none" fill-rule="evenodd">
        <g id="Home" transform="translate(-174.000000, -17.000000)">
            <g id="Group-10">
                <g id="Group-9" transform="translate(174.000000, 14.000000)">
                    <g id="Group-8" transform="translate(79.000000, 17.000000)" fill="#2B2B2B" fill-rule="nonzero">
                        <path d="M7.474,18 C8.834,18 10.072,17.782 11.188,17.346 C12.304,16.91 13.258,16.302 14.05,15.522 C14.842,14.742 15.456,13.818 15.892,12.75 C16.328,11.682 16.546,10.516 16.546,9.252 C16.546,7.996 16.328,6.834 15.892,5.766 C15.456,4.698 14.842,3.776 14.05,3 C13.258,2.224 12.304,1.616 11.188,1.176 C10.072,0.736 8.834,0.516 7.474,0.516 L7.474,0.516 L0.682,0.516 L0.682,18 L7.474,18 Z M7.474,14.88 L4.762,14.88 L4.762,3.636 L7.474,3.636 C8.25,3.636 8.942,3.766 9.55,4.026 C10.158,4.286 10.672,4.658 11.092,5.142 C11.512,5.626 11.834,6.216 12.058,6.912 C12.282,7.608 12.394,8.388 12.394,9.252 C12.394,10.124 12.282,10.908 12.058,11.604 C11.834,12.3 11.512,12.89 11.092,13.374 C10.672,13.858 10.158,14.23 9.55,14.49 C8.942,14.75 8.25,14.88 7.474,14.88 L7.474,14.88 Z M24.286,18.192 C24.71,18.192 25.156,18.162 25.624,18.102 C26.092,18.042 26.56,17.934 27.028,17.778 C27.496,17.622 27.952,17.406 28.396,17.13 C28.84,16.854 29.254,16.496 29.638,16.056 L29.638,16.056 L28.558,14.724 C28.406,14.508 28.182,14.4 27.886,14.4 C27.662,14.4 27.448,14.452 27.244,14.556 C27.04,14.66 26.816,14.776 26.572,14.904 C26.328,15.032 26.05,15.148 25.738,15.252 C25.426,15.356 25.054,15.408 24.622,15.408 C23.814,15.408 23.154,15.174 22.642,14.706 C22.13,14.238 21.814,13.484 21.694,12.444 L21.694,12.444 L28.87,12.444 C29.038,12.444 29.176,12.424 29.284,12.384 C29.392,12.344 29.478,12.272 29.542,12.168 C29.606,12.064 29.65,11.924 29.674,11.748 C29.698,11.572 29.71,11.344 29.71,11.064 C29.71,10.168 29.572,9.366 29.296,8.658 C29.02,7.95 28.636,7.352 28.144,6.864 C27.652,6.376 27.064,6.004 26.38,5.748 C25.696,5.492 24.942,5.364 24.118,5.364 C23.166,5.364 22.312,5.528 21.556,5.856 C20.8,6.184 20.156,6.628 19.624,7.188 C19.092,7.748 18.684,8.4 18.4,9.144 C18.116,9.888 17.974,10.676 17.974,11.508 C17.974,12.612 18.14,13.58 18.472,14.412 C18.804,15.244 19.256,15.94 19.828,16.5 C20.4,17.06 21.068,17.482 21.832,17.766 C22.596,18.05 23.414,18.192 24.286,18.192 Z M26.374,10.284 L21.73,10.284 C21.858,9.524 22.122,8.942 22.522,8.538 C22.922,8.134 23.478,7.932 24.19,7.932 C24.59,7.932 24.93,8 25.21,8.136 C25.49,8.272 25.716,8.45 25.888,8.67 C26.06,8.89 26.184,9.14 26.26,9.42 C26.336,9.7 26.374,9.988 26.374,10.284 L26.374,10.284 Z M38.554,18 L43.378,5.556 L40.426,5.556 C40.186,5.556 39.978,5.618 39.802,5.742 C39.626,5.866 39.506,6.02 39.442,6.204 L39.442,6.204 L37.642,11.784 C37.498,12.24 37.362,12.684 37.234,13.116 C37.106,13.548 36.998,13.98 36.91,14.412 C36.822,13.98 36.716,13.548 36.592,13.116 C36.468,12.684 36.338,12.24 36.202,11.784 L36.202,11.784 L34.474,6.204 C34.41,6.02 34.288,5.866 34.108,5.742 C33.928,5.618 33.706,5.556 33.442,5.556 L33.442,5.556 L30.346,5.556 L35.17,18 L38.554,18 Z M49.294,18 L49.294,12.156 L51.406,12.156 C52.614,12.156 53.66,12.01 54.544,11.718 C55.428,11.426 56.158,11.02 56.734,10.5 C57.31,9.98 57.738,9.356 58.018,8.628 C58.298,7.9 58.438,7.1 58.438,6.228 C58.438,5.42 58.302,4.668 58.03,3.972 C57.758,3.276 57.336,2.672 56.764,2.16 C56.192,1.648 55.464,1.246 54.58,0.954 C53.696,0.662 52.638,0.516 51.406,0.516 L51.406,0.516 L45.238,0.516 L45.238,18 L49.294,18 Z M51.406,9.096 L49.294,9.096 L49.294,3.552 L51.406,3.552 C51.918,3.552 52.36,3.616 52.732,3.744 C53.104,3.872 53.412,4.054 53.656,4.29 C53.9,4.526 54.082,4.808 54.202,5.136 C54.322,5.464 54.382,5.828 54.382,6.228 C54.382,7.132 54.15,7.836 53.686,8.34 C53.222,8.844 52.462,9.096 51.406,9.096 L51.406,9.096 Z M66.034,18.192 C66.978,18.192 67.838,18.042 68.614,17.742 C69.39,17.442 70.056,17.014 70.612,16.458 C71.168,15.902 71.6,15.226 71.908,14.43 C72.216,13.634 72.37,12.74 72.37,11.748 C72.37,10.764 72.216,9.878 71.908,9.09 C71.6,8.302 71.168,7.632 70.612,7.08 C70.056,6.528 69.39,6.104 68.614,5.808 C67.838,5.512 66.978,5.364 66.034,5.364 C65.082,5.364 64.216,5.512 63.436,5.808 C62.656,6.104 61.984,6.528 61.42,7.08 C60.856,7.632 60.42,8.302 60.112,9.09 C59.804,9.878 59.65,10.764 59.65,11.748 C59.65,12.74 59.804,13.634 60.112,14.43 C60.42,15.226 60.856,15.902 61.42,16.458 C61.984,17.014 62.656,17.442 63.436,17.742 C64.216,18.042 65.082,18.192 66.034,18.192 Z M66.034,15.432 C65.154,15.432 64.51,15.13 64.102,14.526 C63.694,13.922 63.49,13.004 63.49,11.772 C63.49,10.54 63.694,9.624 64.102,9.024 C64.51,8.424 65.154,8.124 66.034,8.124 C66.89,8.124 67.52,8.424 67.924,9.024 C68.328,9.624 68.53,10.54 68.53,11.772 C68.53,13.004 68.328,13.922 67.924,14.526 C67.52,15.13 66.89,15.432 66.034,15.432 Z M78.43,18 L78.43,10.368 C78.99,9.328 79.758,8.808 80.734,8.808 C81.014,8.808 81.246,8.826 81.43,8.862 C81.614,8.898 81.774,8.916 81.91,8.916 C82.07,8.916 82.198,8.882 82.294,8.814 C82.39,8.746 82.454,8.628 82.486,8.46 L82.486,8.46 L82.966,5.724 C82.622,5.452 82.166,5.316 81.598,5.316 C80.926,5.316 80.306,5.52 79.738,5.928 C79.17,6.336 78.658,6.892 78.202,7.596 L78.202,7.596 L77.998,6.432 C77.966,6.272 77.928,6.136 77.884,6.024 C77.84,5.912 77.776,5.822 77.692,5.754 C77.608,5.686 77.504,5.636 77.38,5.604 C77.256,5.572 77.102,5.556 76.918,5.556 L76.918,5.556 L74.71,5.556 L74.71,18 L78.43,18 Z M89.29,18.192 C89.93,18.192 90.55,18.102 91.15,17.922 C91.75,17.742 92.29,17.472 92.77,17.112 L92.77,17.112 L91.642,15.348 C91.57,15.236 91.5,15.154 91.432,15.102 C91.364,15.05 91.274,15.024 91.162,15.024 C91.082,15.024 91.012,15.038 90.952,15.066 C90.892,15.094 90.828,15.126 90.76,15.162 C90.692,15.198 90.612,15.23 90.52,15.258 C90.428,15.286 90.314,15.3 90.178,15.3 C89.914,15.3 89.712,15.206 89.572,15.018 C89.432,14.83 89.362,14.592 89.362,14.304 L89.362,14.304 L89.362,8.124 L92.386,8.124 L92.386,5.58 L89.362,5.58 L89.362,1.944 L87.418,1.944 C86.97,1.944 86.698,2.136 86.602,2.52 L86.602,2.52 L85.87,5.556 L83.89,5.94 L83.89,7.392 C83.89,7.632 83.958,7.814 84.094,7.938 C84.23,8.062 84.394,8.124 84.586,8.124 L84.586,8.124 L85.642,8.124 L85.642,14.556 C85.642,15.108 85.722,15.608 85.882,16.056 C86.042,16.504 86.276,16.886 86.584,17.202 C86.892,17.518 87.272,17.762 87.724,17.934 C88.176,18.106 88.698,18.192 89.29,18.192 Z M97.966,18.192 C98.39,18.192 98.776,18.158 99.124,18.09 C99.472,18.022 99.8,17.918 100.108,17.778 C100.416,17.638 100.714,17.468 101.002,17.268 C101.29,17.068 101.59,16.836 101.902,16.572 L101.902,16.572 L102.166,17.256 C102.286,17.56 102.436,17.76 102.616,17.856 C102.796,17.952 103.062,18 103.414,18 L103.414,18 L105.118,18 L105.118,10.224 C105.118,9.512 105.006,8.856 104.782,8.256 C104.558,7.656 104.236,7.138 103.816,6.702 C103.396,6.266 102.884,5.926 102.28,5.682 C101.676,5.438 100.998,5.316 100.246,5.316 C99.198,5.316 98.216,5.478 97.3,5.802 C96.384,6.126 95.55,6.62 94.798,7.284 L94.798,7.284 L95.47,8.448 C95.574,8.632 95.716,8.786 95.896,8.91 C96.076,9.034 96.294,9.096 96.55,9.096 C96.838,9.096 97.086,9.048 97.294,8.952 C97.502,8.856 97.716,8.748 97.936,8.628 C98.156,8.508 98.406,8.4 98.686,8.304 C98.966,8.208 99.326,8.16 99.766,8.16 C100.318,8.16 100.744,8.322 101.044,8.646 C101.344,8.97 101.494,9.496 101.494,10.224 L101.494,10.224 L101.494,10.752 C100.07,10.784 98.89,10.928 97.954,11.184 C97.018,11.44 96.274,11.758 95.722,12.138 C95.17,12.518 94.782,12.94 94.558,13.404 C94.334,13.868 94.222,14.32 94.222,14.76 C94.222,15.32 94.31,15.814 94.486,16.242 C94.662,16.67 94.912,17.028 95.236,17.316 C95.56,17.604 95.954,17.822 96.418,17.97 C96.882,18.118 97.398,18.192 97.966,18.192 Z M99.142,15.732 C98.694,15.732 98.354,15.646 98.122,15.474 C97.89,15.302 97.774,15.004 97.774,14.58 C97.774,14.364 97.828,14.164 97.936,13.98 C98.044,13.796 98.238,13.632 98.518,13.488 C98.798,13.344 99.178,13.224 99.658,13.128 C100.138,13.032 100.75,12.968 101.494,12.936 L101.494,12.936 L101.494,14.664 C101.126,15.04 100.762,15.312 100.402,15.48 C100.042,15.648 99.622,15.732 99.142,15.732 Z M111.898,18 L111.898,0.036 L108.178,0.036 L108.178,18 L111.898,18 Z" id="DevPortal"></path>
                        <path d="M76.39,32.098 C77.062,32.098 77.6616667,31.9393333 78.189,31.622 C78.7163333,31.3046667 79.1293333,30.8473333 79.428,30.25 C79.7266667,29.6526667 79.876,28.948 79.876,28.136 C79.876,27.3333333 79.7266667,26.6333333 79.428,26.036 C79.1293333,25.4386667 78.7163333,24.9813333 78.189,24.664 C77.6616667,24.3466667 77.062,24.188 76.39,24.188 C75.69,24.188 75.0926667,24.3606667 74.598,24.706 C74.1033333,25.0513333 73.758,25.5086667 73.562,26.078 L73.562,26.078 L73.562,21.64 L71.966,21.64 L71.966,32 L73.562,32 L73.562,30.208 C73.758,30.7773333 74.1033333,31.2346667 74.598,31.58 C75.0926667,31.9253333 75.69,32.098 76.39,32.098 Z M75.9,30.684 C75.452,30.684 75.0506667,30.579 74.696,30.369 C74.3413333,30.159 74.0613333,29.8626667 73.856,29.48 C73.6506667,29.0973333 73.548,28.6493333 73.548,28.136 C73.548,27.632 73.6506667,27.1863333 73.856,26.799 C74.0613333,26.4116667 74.3413333,26.113 74.696,25.903 C75.0506667,25.693 75.452,25.588 75.9,25.588 C76.6093333,25.588 77.1786667,25.8166667 77.608,26.274 C78.0373333,26.7313333 78.252,27.352 78.252,28.136 C78.252,28.9293333 78.0373333,29.5523333 77.608,30.005 C77.1786667,30.4576667 76.6093333,30.684 75.9,30.684 Z M84.069,35.668 L88.731,24.286 L86.953,24.286 L84.811,29.956 L82.501,24.286 L80.709,24.286 L83.957,31.818 L82.291,35.668 L84.069,35.668 Z M96.739,32.098 C97.4296667,32.098 98.013,31.972 98.489,31.72 C98.965,31.468 99.3196667,31.1343333 99.553,30.719 C99.7863333,30.3036667 99.903,29.8533333 99.903,29.368 C99.903,28.7426667 99.7653333,28.2386667 99.49,27.856 C99.2146667,27.4733333 98.8786667,27.1816667 98.482,26.981 C98.0853333,26.7803333 97.5743333,26.582 96.949,26.386 C96.4543333,26.218 96.0646667,26.071 95.78,25.945 C95.4953333,25.819 95.2596667,25.6463333 95.073,25.427 C94.8863333,25.2076667 94.793,24.93 94.793,24.594 C94.793,24.1646667 94.9283333,23.8356667 95.199,23.607 C95.4696667,23.3783333 95.829,23.264 96.277,23.264 C96.7716667,23.264 97.1613333,23.397 97.446,23.663 C97.7306667,23.929 97.9056667,24.2486667 97.971,24.622 L97.971,24.622 L99.693,24.622 C99.609,23.838 99.2706667,23.2033333 98.678,22.718 C98.0853333,22.2326667 97.285,21.99 96.277,21.99 C95.6423333,21.99 95.0823333,22.0996667 94.597,22.319 C94.1116667,22.5383333 93.7383333,22.8486667 93.477,23.25 C93.2156667,23.6513333 93.085,24.118 93.085,24.65 C93.085,25.2566667 93.2203333,25.7466667 93.491,26.12 C93.7616667,26.4933333 94.0906667,26.778 94.478,26.974 C94.8653333,27.17 95.367,27.366 95.983,27.562 C96.487,27.73 96.8836667,27.8793333 97.173,28.01 C97.4623333,28.1406667 97.705,28.3203333 97.901,28.549 C98.097,28.7776667 98.195,29.0693333 98.195,29.424 C98.195,29.8346667 98.062,30.1706667 97.796,30.432 C97.53,30.6933333 97.1543333,30.824 96.669,30.824 C96.1276667,30.824 95.696,30.67 95.374,30.362 C95.052,30.054 94.8676667,29.6853333 94.821,29.256 L94.821,29.256 L93.113,29.256 C93.1596667,29.816 93.3416667,30.3106667 93.659,30.74 C93.9763333,31.1693333 94.401,31.503 94.933,31.741 C95.465,31.979 96.067,32.098 96.739,32.098 Z M103.27,32 L103.27,24.706 L106.098,32 L107.498,32 L110.312,24.706 L110.312,32 L111.922,32 L111.922,22.27 L109.99,22.27 L106.826,30.04 L103.606,22.27 L101.674,22.27 L101.674,32 L103.27,32 Z" id="bySM"></path>
                    </g>
                    <g id="Group-3">
                        <path d="M30.4995332,9.79358698 L47.5600482,43.914617 C48.7949944,46.3845094 47.7938727,49.3878746 45.3239802,50.6228209 C44.6297031,50.9699595 43.8641377,51.1506849 43.0879122,51.1506849 L8.96688227,51.1506849 C6.20545852,51.1506849 3.96688227,48.9121087 3.96688227,46.1506849 C3.96688227,45.3744595 4.14760773,44.6088941 4.49474632,43.914617 L21.5552613,9.79358698 C22.7902075,7.32369449 25.7935728,6.32257276 28.2634652,7.557519 C29.2311022,8.04133751 30.0157147,8.82594997 30.4995332,9.79358698 Z" id="Triangle" fill="url(#linearGradient-1)" transform="translate(26.027397, 26.000000) rotate(90.000000) translate(-26.027397, -26.000000) "></path>
                        <path d="M34.4447387,9.79358698 L51.5052537,43.914617 C52.7401999,46.3845094 51.7390782,49.3878746 49.2691857,50.6228209 C48.5749085,50.9699595 47.8093432,51.1506849 47.0331177,51.1506849 L12.9120878,51.1506849 C10.150664,51.1506849 7.91208775,48.9121087 7.91208775,46.1506849 C7.91208775,45.3744595 8.09281321,44.6088941 8.4399518,43.914617 L25.5004668,9.79358698 C26.735413,7.32369449 29.7387782,6.32257276 32.2086707,7.557519 C33.1763077,8.04133751 33.9609202,8.82594997 34.4447387,9.79358698 Z" id="Triangle" fill="url(#linearGradient-2)" transform="translate(29.972603, 26.000000) scale(-1, 1) rotate(90.000000) translate(-29.972603, -26.000000) "></path>
                    </g>
                </g>
            </g>
        </g>
    </g>
</svg>